<?xml version="1.0" encoding="UTF-8"?>
<svg width="48px" height="39px" viewBox="0 0 48 39" version="1.1" xmlns="http://www.w3.org/2000/svg" xmlns:xlink="http://www.w3.org/1999/xlink">
    <!-- Generator: Sketch 51.3 (57544) - http://www.bohemiancoding.com/sketch -->
    <title>noun_Email_111026</title>
    <desc>Created with Sketch.</desc>
    <defs></defs>
    <g id="Page-1" stroke="none" stroke-width="1" fill="none" fill-rule="evenodd">
        <g id="noun_Email_111026" transform="translate(1.000000, 1.000000)">
            <g id="Group">
                <g id="Shape" stroke="#FFFFFF" stroke-linecap="round" stroke-linejoin="round" stroke-width="2">
                    <polyline points="17.1 30.1 0 30.1 0 0.1 46 0.1 46 23.3 46 30.1"></polyline>
                    <polyline points="0 0.1 23 17.8 46 0.1"></polyline>
                </g>
                <path d="M36.5,36.8 C34.9,37.7 33.2,38 31.3,38 C26.5,38 22.4,34.5 22.4,28.8 C22.4,22.7 26.6,17.5 33.1,17.5 C38.2,17.5 41.6,21.1 41.6,26 C41.6,30.4 39.1,33 36.4,33 C35.2,33 34.1,32.2 34.2,30.4 L34.1,30.4 C33.1,32.1 31.7,33 30,33 C28.3,33 26.8,31.6 26.8,29.3 C26.8,25.7 29.7,22.3 33.8,22.3 C35.1,22.3 36.2,22.6 36.9,22.9 L35.9,28.2 C35.5,30.4 35.8,31.5 36.8,31.5 C38.3,31.5 40,29.5 40,26.1 C40,21.8 37.4,18.8 32.9,18.8 C28.1,18.8 24.1,22.6 24.1,28.6 C24.1,33.5 27.3,36.5 31.6,36.5 C33.3,36.5 34.8,36.1 36,35.5 L36.5,36.8 Z M34.8,24.1 C34.5,24 34,23.9 33.3,23.9 C30.7,23.9 28.6,26.3 28.6,29.2 C28.6,30.5 29.2,31.4 30.5,31.4 C32.2,31.4 33.8,29.2 34.1,27.4 L34.8,24.1 Z" id="Shape" fill="#FFFFFF" fill-rule="nonzero"></path>
            </g>
        </g>
    </g>
</svg>