<?xml version="1.0" encoding="UTF-8"?>
<svg width="63px" height="62px" viewBox="0 0 63 62" version="1.1" xmlns="http://www.w3.org/2000/svg" xmlns:xlink="http://www.w3.org/1999/xlink">
    <!-- Generator: Sketch 51.3 (57544) - http://www.bohemiancoding.com/sketch -->
    <title>noun_Phone_1952558</title>
    <desc>Created with Sketch.</desc>
    <defs></defs>
    <g id="Page-1" stroke="none" stroke-width="1" fill="none" fill-rule="evenodd">
        <g id="noun_Phone_1952558" fill="#FFFFFF" fill-rule="nonzero">
            <path d="M31,-3.55271368e-15 C13.8791728,-5.55111512e-15 2.22044605e-15,13.8791728 0,31 C-2.10942375e-15,48.1208272 13.8791728,62 31,62 C40.49,62 48.06,58.54 50.27,53.19 C51.3472912,50.6512003 50.8729364,47.7195321 49.05,45.65 C49.9951881,44.6623953 50.6671952,43.4458901 51,42.12 C51.1803621,40.5328599 50.3382347,39.0050001 48.9,38.31 L48.75,38.2 C48.18,37.81 45.54,36.09 43.85,34.99 L42.49,34.11 C40.7518447,33.0150428 38.462761,33.4518908 37.25,35.11 L37,35.4 C36.49,36.06 36.23,36.4 35.88,36.4 C35.24,36.4 33.65,35.73 30,32.08 C26.35,28.43 25.64,26.88 25.68,26.2 C25.68,25.86 25.99,25.6 26.68,25.08 L27,24.82 C28.6762103,23.6187486 29.1160248,21.3141207 28,19.58 L26.88,17.87 C25.78,16.18 24.27,13.87 23.88,13.32 L23.78,13.17 C23.0864492,11.6790264 21.5125834,10.8033113 19.88,11 C17.88,11.29 13,14.41 13,20.1 C13,25.29 16.77,32.04 23.35,38.62 C29.93,45.2 36.67,49 41.86,49 C43.9450695,49.0053026 45.9696909,48.2998596 47.6,47 C48.8818791,48.5031885 49.2032975,50.6020889 48.43,52.42 C46.86,56.2 40.87,60 31,60 C18.5586634,59.9777099 7.51774944,52.0221406 3.5591131,40.2273726 C-0.399523251,28.4326047 3.60625486,15.4269672 13.5150012,7.90339765 C23.4237476,0.379828098 37.0274113,0.0148678965 47.3252999,6.9963322 C57.6231885,13.9777965 62.3205352,26.7499458 59,38.74 L60.92,39.27 C63.5050934,29.9310258 61.5745149,19.9204883 55.7018608,12.2126298 C49.8292068,4.50477141 40.6901477,-0.0135904506 31,-3.55271368e-15 Z M24.76,37.24 C18.56,31 15,24.81 15,20.14 C15.0320774,16.903545 17.1051897,14.0404846 20.17,13 L20.43,13 C21.14,13 21.52,13.49 22.04,14.25 L22.15,14.42 C22.51,14.95 24.02,17.26 25.15,18.93 L26.27,20.65 C26.8044825,21.5244291 26.5579844,22.6644827 25.71,23.24 L25.41,23.48 C24.4681395,24.0243356 23.8298615,24.9725289 23.68,26.05 C23.57,27.74 24.99,29.89 28.58,33.47 C32.17,37.05 34.3,38.47 35.99,38.37 C37.0657633,38.2090128 38.0126373,37.5740934 38.57,36.64 L38.8,36.34 C39.37613,35.486108 40.5234311,35.2389969 41.4,35.78 L42.76,36.67 C44.44,37.76 47.05,39.46 47.62,39.85 L47.79,39.97 C48.64,40.54 49.15,40.97 49.02,41.84 C47.9736789,44.9077503 45.1012019,46.9778595 41.86,47 C37.2,47 31,43.45 24.76,37.24 Z" id="Shape"></path>
        </g>
    </g>
</svg>